<svg width="18" height="18" viewBox="0 0 18 18" fill="none" xmlns="http://www.w3.org/2000/svg">
<path d="M5.25 3.375C4.00736 3.375 3 4.38236 3 5.625C3 6.0515 3.11867 6.45028 3.32478 6.79013C2.28545 6.98891 1.5 7.90275 1.5 9C1.5 10.0973 2.28545 11.011 3.32478 11.2099M4.5 10.253C4.00655 10.4274 3.59211 10.7691 3.32478 11.2099C3.11867 11.5497 3 11.9485 3 12.375C3 13.6177 4.00736 14.625 5.25 14.625C5.25 15.6605 6.08947 16.5 7.125 16.5C8.16052 16.5 9 15.6605 9 14.625V3.375C9 2.33947 8.16052 1.5 7.125 1.5C6.08947 1.5 5.25 2.33947 5.25 3.375M5.25 3.375C5.25 3.98843 5.54459 4.53306 6 4.87513" stroke="#237769" stroke-linecap="round" stroke-linejoin="round"/>
<path d="M12.75 14.6249C13.9927 14.6249 15 13.6175 15 12.3749C15 11.9484 14.8813 11.5496 14.6752 11.2098C15.7145 11.011 16.5 10.0972 16.5 8.99992C16.5 7.90267 15.7145 6.98882 14.6752 6.79003M12.75 14.6249C12.75 15.6604 11.9105 16.4999 10.875 16.4999C9.83948 16.4999 9 15.6604 9 14.6249V3.37491C9 2.33938 9.83948 1.49991 10.875 1.49991C11.9105 1.49991 12.75 2.33938 12.75 3.37491C13.9927 3.37491 15 4.38226 15 5.62491C15 6.0514 14.8813 6.45018 14.6752 6.79003M12.75 14.6249C12.75 14.0115 12.4554 13.4668 12 13.1248M14.6752 6.79003C14.4079 7.23082 13.9934 7.57245 13.5 7.7469" stroke="#237769" stroke-linecap="round" stroke-linejoin="round"/>
</svg>
