<svg width="18" height="18" viewBox="0 0 18 18" fill="none" xmlns="http://www.w3.org/2000/svg">
<path d="M12 13.5C12 15.1568 10.6568 16.5 9 16.5C7.34314 16.5 6 15.1568 6 13.5" stroke="#237769" stroke-width="1.5" stroke-linecap="round" stroke-linejoin="round"/>
<path d="M3.32741 13.5H14.6719C15.2177 13.5 15.4906 13.5 15.6486 13.4213C15.9555 13.2685 16.1197 12.9269 16.0473 12.5917C16.0101 12.4192 15.8396 12.2062 15.4986 11.78L15.3713 11.6208C15.0294 11.1935 14.8585 10.9798 14.7138 10.7557C14.264 10.0589 13.9858 9.2655 13.9017 8.4405C13.8746 8.17515 13.8746 7.90148 13.8746 7.3542V6.375C13.8746 6.02679 13.8746 5.85269 13.865 5.70569C13.7174 3.45228 11.9224 1.65733 9.669 1.50964C9.522 1.5 9.34785 1.5 8.99963 1.5C8.65148 1.5 8.47733 1.5 8.33033 1.50964C6.07694 1.65733 4.28198 3.45228 4.13429 5.70569C4.12466 5.85269 4.12466 6.02679 4.12466 6.375V7.3542C4.12466 7.90148 4.12466 8.17515 4.09762 8.4405C4.01357 9.2655 3.73526 10.0589 3.2855 10.7557C3.14084 10.9798 2.96989 11.1935 2.62801 11.6208L2.5007 11.78C2.15973 12.2062 1.98925 12.4192 1.95201 12.5917C1.87966 12.9269 2.04382 13.2685 2.35073 13.4213C2.50868 13.5 2.78159 13.5 3.32741 13.5Z" stroke="#237769" stroke-width="1.5"/>
</svg>
