<svg xmlns="http://www.w3.org/2000/svg" width="32" height="32" viewBox="0 0 32 32" fill="none">
  <rect width="32" height="32" rx="6" fill="#FF5731"/>
  <path d="M23.4 24.9999V22.2999C23.4 19.7543 23.4 18.4816 22.6092 17.6907C21.8184 16.8999 20.5456 16.8999 18 16.8999L16.2 18.6999L14.4 16.8999C11.8544 16.8999 10.5816 16.8999 9.79081 17.6907C9 18.4816 9 19.7543 9 22.2999V24.9999" stroke="white" stroke-width="1.5" stroke-linecap="round" stroke-linejoin="round"/>
  <path d="M19.8 16.8999V21.8499" stroke="white" stroke-width="1.5" stroke-linecap="round" stroke-linejoin="round"/>
  <path d="M13.05 16.8999V20.4999M13.05 20.4999C14.0441 20.4999 14.85 21.3058 14.85 22.2999V23.1999M13.05 20.4999C12.0559 20.4999 11.25 21.3058 11.25 22.2999V23.1999" stroke="white" stroke-width="1.5" stroke-linecap="round" stroke-linejoin="round"/>
  <path d="M19.3501 11.05V10.15C19.3501 8.4103 17.9398 7 16.2001 7C14.4604 7 13.05 8.4103 13.05 10.15V11.05C13.05 12.7897 14.4604 14.2 16.2001 14.2C17.9398 14.2 19.3501 12.7897 19.3501 11.05Z" stroke="white" stroke-width="1.5" stroke-linecap="round" stroke-linejoin="round"/>
  <path d="M20.475 22.5251C20.475 22.8979 20.1728 23.2001 19.8 23.2001C19.4272 23.2001 19.125 22.8979 19.125 22.5251C19.125 22.1523 19.4272 21.8501 19.8 21.8501C20.1728 21.8501 20.475 22.1523 20.475 22.5251Z" stroke="white" stroke-width="1.5"/>
</svg>