<svg xmlns="http://www.w3.org/2000/svg" width="32" height="32" viewBox="0 0 32 32" fill="none">
  <rect width="32" height="32" rx="6" fill="#FF5731"/>
  <path d="M18.8304 9.13214C18.2528 8.43861 17.4006 8 16.45 8C15.103 8 13.9534 8.88079 13.5031 10.1197C13.1663 9.96244 12.7929 9.875 12.4 9.875C10.9088 9.875 9.7 11.1342 9.7 12.6875C9.7 12.7032 9.70013 12.7188 9.70037 12.7345M16.0247 12.6875C16.0592 12.3624 16.1291 12.0485 16.2305 11.75C16.6524 10.5064 17.6183 9.53037 18.8304 9.13214C19.2152 9.00569 19.625 8.9375 20.05 8.9375C22.2868 8.9375 24.1 10.8263 24.1 13.1562C24.1 13.7465 23.9836 14.3084 23.7735 14.8184M9.70037 12.7345C9.55486 12.7037 9.40424 12.6875 9.25 12.6875C8.00736 12.6875 7 13.7368 7 15.0312C7 16.3257 8.00736 17.375 9.25 17.375H13.345M9.70037 12.7345C9.7114 13.4364 9.96928 14.0757 10.3875 14.5625M23.7735 14.8184C23.4665 14.6548 23.1185 14.5625 22.75 14.5625C21.6614 14.5625 20.7534 15.3677 20.545 16.4375M23.7735 14.8184C24.5016 15.2066 25 15.9958 25 16.9062C25 18.2007 23.9926 19.25 22.75 19.25C21.6614 19.25 20.9078 20.3827 21.29 21.4445L21.85 23M13.345 17.375C13.5535 18.4448 14.4614 19.25 15.55 19.25C15.7793 19.25 15.8941 19.25 15.9998 19.2631C16.5269 19.3283 16.9996 19.6326 17.2913 20.0946C17.3499 20.1872 17.4012 20.2941 17.5037 20.5078L18.7 23M13.345 17.375C13.3155 17.2235 13.3 17.0668 13.3 16.9062C13.3 16.1396 13.6534 15.4588 14.1998 15.0312" stroke="white" stroke-width="1.5" stroke-linecap="round" stroke-linejoin="round"/>
</svg>