<svg width="77" height="96" viewBox="0 0 77 96" fill="none" xmlns="http://www.w3.org/2000/svg">
<g opacity="0.2">
<path d="M76.3198 52.8C76.3198 36.8063 67.6269 22.8463 54.7219 15.3812L52.2268 13.938L43.5908 28.896L48.5792 31.776L54.2771 21.9067C64.115 28.6575 70.5598 39.9775 70.5598 52.8C70.5598 73.4775 53.7974 90.24 33.1198 90.24V96C56.9785 96 76.3198 76.6587 76.3198 52.8Z" fill="#5C796B"/>
<path d="M64.7993 52.8C64.7993 41.0703 58.423 30.8332 48.9614 25.3599L46.0773 30.3459C53.8322 34.832 59.0393 43.2096 59.0393 52.8C59.0393 67.1152 47.4345 78.72 33.1193 78.72C18.8041 78.72 7.19932 67.1152 7.19932 52.8H1.43932C1.43932 70.2964 15.6229 84.48 33.1193 84.48C50.6157 84.48 64.7993 70.2964 64.7993 52.8Z" fill="#5C796B"/>
<path d="M24.4797 13.344C24.4797 9.15547 27.8752 5.76 32.0637 5.76C36.2522 5.76 39.6477 9.15547 39.6477 13.344C39.6477 17.5325 36.2522 20.928 32.0637 20.928C27.8752 20.928 24.4797 17.5325 24.4797 13.344ZM18.7197 13.344C18.7197 20.7137 24.694 26.688 32.0637 26.688C39.4334 26.688 45.4077 20.7137 45.4077 13.344C45.4077 5.97431 39.4334 0 32.0637 0C24.694 0 18.7197 5.97431 18.7197 13.344Z" fill="#5C796B"/>
<path d="M1.53578 49.92V55.68H13.1642C14.5616 65.4498 22.9636 72.96 33.1198 72.96C44.2538 72.96 53.2798 63.934 53.2798 52.8H47.5198C47.5198 60.7529 41.0727 67.2 33.1198 67.2C25.1669 67.2 18.7198 60.7529 18.7198 52.8V49.92H1.53578Z" fill="#5C796B"/>
<path d="M5.76001 36.576C5.76001 33.872 7.95203 31.68 10.656 31.68C13.36 31.68 15.552 33.872 15.552 36.576C15.552 39.28 13.36 41.472 10.656 41.472C7.95203 41.472 5.76001 39.28 5.76001 36.576ZM1.15335e-05 36.576C1.15335e-05 42.4611 4.77087 47.232 10.656 47.232C16.5412 47.232 21.312 42.4611 21.312 36.576C21.312 30.6908 16.5412 25.92 10.656 25.92C4.77087 25.92 1.15335e-05 30.6908 1.15335e-05 36.576Z" fill="#5C796B"/>
</g>
</svg>
