<svg width="18" height="18" viewBox="0 0 18 18" fill="none" xmlns="http://www.w3.org/2000/svg">
<path d="M3.00003 5.24982C3.0577 4.18686 3.21566 3.49812 3.64773 2.97164C3.77238 2.81973 3.91165 2.68045 4.0636 2.55579C4.89333 1.87482 6.1261 1.87482 8.59173 1.87482L9.00003 1.87494C11.8284 1.87494 13.2426 1.87494 14.1213 2.75361C15 3.6323 15 5.04651 15 7.87494V10.1249C15 12.9533 15 14.3676 14.1213 15.2462C13.2426 16.1249 11.8284 16.1249 9.00003 16.1249L8.59173 16.1248C6.1261 16.1248 4.89333 16.1248 4.0636 15.4439C3.91165 15.3192 3.77238 15.1799 3.64773 15.028C3.21566 14.5015 3.0577 13.8128 3.00003 12.7498" stroke="#FF5731" stroke-width="1.5" stroke-linecap="round"/>
<path d="M6 5.99994C6 5.99994 3 8.20943 3 8.99993C3 9.79051 6 11.9999 6 11.9999M3.375 8.99993H11.25" stroke="#FF5731" stroke-width="1.5" stroke-linecap="round" stroke-linejoin="round"/>
</svg>
