<svg width="24" height="24" viewBox="0 0 24 24" fill="none" xmlns="http://www.w3.org/2000/svg">
<path d="M21.3333 13.8667V10.1333C21.3333 6.61351 21.3333 4.8536 20.2398 3.76013C19.1464 2.66666 17.3864 2.66666 13.8667 2.66666H12C8.48017 2.66666 6.72027 2.66666 5.62679 3.76013C4.53333 4.8536 4.53333 6.61351 4.53333 10.1333V13.8667C4.53333 17.3864 4.53333 19.1464 5.62679 20.2398C6.72027 21.3333 8.48017 21.3333 12 21.3333H13.8667C17.3864 21.3333 19.1464 21.3333 20.2398 20.2398C21.3333 19.1464 21.3333 17.3864 21.3333 13.8667Z" stroke="#FF5731" stroke-width="1.5"/>
<path d="M5.46669 6.4H2.66669M5.46669 12H2.66669M5.46669 17.6H2.66669" stroke="#FF5731" stroke-width="1.5" stroke-linecap="round" stroke-linejoin="round"/>
<path d="M17.1334 7.33334H13.4M15.2667 11.0667H13.4" stroke="#FF5731" stroke-width="1.5" stroke-linecap="round" stroke-linejoin="round"/>
<path d="M9.20001 21.3333V2.66666" stroke="#FF5731" stroke-width="1.5" stroke-linecap="round" stroke-linejoin="round"/>
</svg>
