<svg width="512" height="112" viewBox="0 0 512 112" fill="none" xmlns="http://www.w3.org/2000/svg">
	<rect width="112" height="112" rx="28" fill="url(#paint0_linear)" />
	<path d="M60.5644 39.8554L62.6752 41.0704L62.6673 41.0808C69.2213 44.8731 73.6198 51.9531 73.6198 60.0579C73.6198 72.1505 63.8118 81.9586 51.7191 81.9586C40.4487 81.9586 31.167 73.4423 29.9564 62.4902H34.8613C36.0421 70.7478 43.1438 77.0967 51.7191 77.0967C61.1254 77.0967 68.7512 69.4709 68.7512 60.0649H63.8825C63.8825 66.7834 58.4368 72.2291 51.7183 72.2291C44.9997 72.2291 39.554 66.7834 39.554 60.0649V57.6305H25.0368V60.0649H24.955C24.955 60.7277 24.9895 61.3845 25.0368 62.0352V62.5006H25.0711C26.3014 76.1374 37.7563 86.8221 51.7191 86.8221C66.5075 86.8221 78.4972 74.8323 78.4972 60.0439C78.4972 50.9983 74.013 43.0051 67.1588 38.1556L69.6016 33.9235C77.9154 39.6294 83.3611 49.1975 83.3611 60.0439C83.3611 77.5261 69.1942 91.6931 51.7119 91.6931V96.5617C71.8806 96.5617 88.2324 80.2099 88.2324 60.0412C88.2324 46.5252 80.882 34.7263 69.9675 28.418L67.8568 27.198L60.5644 39.8554ZM31.1297 37.3378C26.1583 37.3378 22.1272 41.3694 22.1267 46.3407C22.1267 51.3123 26.1579 55.3434 31.1297 55.3434C36.1009 55.3427 40.1304 51.3119 40.1304 46.3407C40.1299 41.3701 36.1005 37.3387 31.1297 37.3378ZM31.1297 42.2055C33.4135 42.2061 35.2648 44.057 35.2652 46.3407C35.2652 48.6248 33.4138 50.4765 31.1297 50.4773C28.8452 50.4773 26.9935 48.6254 26.9935 46.3407C26.994 44.0566 28.8454 42.2055 31.1297 42.2055ZM49.3565 15.4032C43.1317 15.4033 38.0858 20.4493 38.0858 26.6741C38.0858 32.8989 43.1317 37.9448 49.3565 37.9451C55.5813 37.9451 60.6272 32.8992 60.6272 26.6741C60.6272 20.4492 55.5813 15.4032 49.3565 15.4032ZM49.3565 20.2699C52.8944 20.2699 55.7621 23.1377 55.7621 26.6755C55.7621 30.2134 52.8944 33.0812 49.3565 33.0812C45.8186 33.0809 42.9509 30.2131 42.9509 26.6755C42.9509 23.1378 45.8187 20.2701 49.3565 20.2699Z" fill="white" />
	<text x="144" y="77" fill="#1C252E" font-family="Georgia, 'Times New Roman', serif" font-size="78" font-weight="700" letter-spacing="-1.8">Babywise</text>
	<defs>
		<linearGradient id="paint0_linear" x1="10" y1="10" x2="112" y2="112" gradientUnits="userSpaceOnUse">
			<stop stop-color="#FF5A36" />
			<stop offset="1" stop-color="#FF3B0F" />
		</linearGradient>
	</defs>
</svg>
