<svg width="230" height="42" viewBox="0 0 230 42" fill="none" xmlns="http://www.w3.org/2000/svg">
<rect width="41.4" height="41.4" rx="8.475" fill="url(#paint0_linear_11_508)"/>
<path d="M22.3974 14.7303L23.1777 15.1795L23.1748 15.1834C25.598 16.5854 27.2246 19.2032 27.2246 22.2C27.2246 26.6735 23.5985 30.2996 19.125 30.2996C14.9559 30.2996 11.5231 27.1501 11.0752 23.1004H12.8887C13.3255 26.1533 15.9513 28.4998 19.125 28.4998C22.6044 28.4998 25.4248 25.6794 25.4248 22.2H23.625C23.625 24.6853 21.6103 26.7 19.125 26.7C16.6397 26.7 14.625 24.6853 14.625 22.2V21.2996H9.25487V22.2H9.2246C9.2246 22.4451 9.23736 22.6879 9.25487 22.9285V23.1004H9.26757C9.72255 28.146 13.961 32.1004 19.125 32.1004C24.5926 32.1004 29.0254 27.6676 29.0254 22.2C29.0254 18.857 27.3677 15.9018 24.833 14.1102L25.7363 12.5457C28.8106 14.6553 30.8252 18.193 30.8252 22.2C30.8252 28.6617 25.5867 33.9002 19.125 33.9002V35.7C26.5808 35.7 32.625 29.6559 32.625 22.2C32.625 17.2021 29.9086 12.8395 25.876 10.5067L25.0957 10.0555L22.3974 14.7303ZM12.1055 13.7996C10.2665 13.7996 8.77555 15.2907 8.77538 17.1297C8.77538 18.9688 10.2663 20.4598 12.1055 20.4598C13.9444 20.4595 15.4346 18.9687 15.4346 17.1297C15.4344 15.2909 13.9443 13.7999 12.1055 13.7996ZM12.1055 15.6004C12.9501 15.6006 13.6346 16.285 13.6348 17.1297C13.6348 17.9745 12.9502 18.6597 12.1055 18.66C11.2605 18.66 10.5752 17.9747 10.5752 17.1297C10.5754 16.2848 11.2606 15.6004 12.1055 15.6004ZM18.7949 5.70001C16.4919 5.70006 14.625 7.56697 14.625 9.86993C14.625 12.1729 16.4919 14.0398 18.7949 14.0399C21.0979 14.0399 22.9648 12.173 22.9648 9.86993C22.9648 7.56694 21.0979 5.70001 18.7949 5.70001ZM18.7949 7.49982C20.1038 7.49982 21.165 8.56106 21.165 9.86993C21.165 11.1788 20.1038 12.2401 18.7949 12.2401C17.486 12.24 16.4248 11.1788 16.4248 9.86993C16.4248 8.56108 17.4861 7.49986 18.7949 7.49982Z" fill="white"/>
<path d="M50.475 32.25V30.171C50.958 30.15 51.357 30.087 51.672 29.982C52.008 29.877 52.26 29.6355 52.428 29.2575C52.617 28.8795 52.7115 28.2705 52.7115 27.4305V15.366C52.7115 14.799 52.722 14.253 52.743 13.728C52.785 13.203 52.8165 12.804 52.8375 12.531C52.5015 12.552 52.0815 12.573 51.5775 12.594C51.0735 12.594 50.706 12.6045 50.475 12.6255V10.2C51.924 10.179 53.373 10.1685 54.822 10.1685C56.292 10.1685 57.7515 10.158 59.2005 10.137C61.7205 10.116 63.7155 10.5885 65.1855 11.5545C66.6765 12.4995 67.3695 13.938 67.2645 15.87C67.2225 16.479 67.0335 17.0775 66.6975 17.6655C66.3615 18.2325 65.8575 18.747 65.1855 19.209C64.5345 19.671 63.7155 20.0385 62.7285 20.3115V20.343C64.8285 20.679 66.372 21.3825 67.359 22.4535C68.346 23.5035 68.8395 24.6795 68.8395 25.9815C68.8395 27.3465 68.5035 28.5015 67.8315 29.4465C67.1805 30.3705 66.2775 31.074 65.1225 31.557C63.9675 32.019 62.655 32.25 61.185 32.25H50.475ZM57.153 30.0135C57.531 30.0135 57.888 30.0135 58.224 30.0135C58.56 30.0135 58.896 30.0135 59.232 30.0135C59.568 29.9925 59.8935 29.982 60.2085 29.982C61.4895 29.919 62.424 29.5095 63.012 28.7535C63.6 27.9975 63.894 27.042 63.894 25.887C63.894 24.921 63.6945 24.165 63.2955 23.619C62.8965 23.052 62.382 22.653 61.752 22.422C61.143 22.191 60.5025 22.0755 59.8305 22.0755C59.3055 22.0755 58.854 22.0755 58.476 22.0755C58.098 22.0755 57.699 22.086 57.279 22.107V27.2415C57.279 27.8085 57.2685 28.344 57.2475 28.848C57.2265 29.352 57.195 29.7405 57.153 30.0135ZM57.279 19.8705L58.917 19.839C59.799 19.818 60.492 19.6185 60.996 19.2405C61.521 18.8625 61.8885 18.3585 62.0985 17.7285C62.3295 17.0775 62.445 16.374 62.445 15.618C62.445 14.778 62.277 14.127 61.941 13.665C61.605 13.182 61.185 12.8355 60.681 12.6255C60.177 12.4155 59.652 12.321 59.106 12.342C58.77 12.342 58.4655 12.3945 58.1925 12.4995C57.9195 12.6045 57.699 12.846 57.531 13.224C57.363 13.581 57.279 14.169 57.279 14.988V19.8705Z" fill="#1C252E"/>
<path d="M79.7742 32.25C79.7322 31.956 79.7007 31.7145 79.6797 31.5255C79.6797 31.3155 79.6692 31.074 79.6482 30.801C78.9342 31.515 78.1782 32.019 77.3802 32.313C76.5822 32.607 75.7737 32.754 74.9547 32.754C73.6107 32.754 72.5607 32.355 71.8047 31.557C71.0487 30.759 70.6707 29.7615 70.6707 28.5645C70.6707 27.5565 70.9227 26.6955 71.4267 25.9815C71.9517 25.2675 72.6342 24.69 73.4742 24.249C74.3352 23.787 75.2802 23.4405 76.3092 23.2095C77.3592 22.9575 78.4092 22.8105 79.4592 22.7685V21.1305C79.4592 20.5845 79.3857 20.091 79.2387 19.65C79.1127 19.209 78.8817 18.8625 78.5457 18.6105C78.2307 18.3585 77.7792 18.243 77.1912 18.264C76.7922 18.285 76.4037 18.369 76.0257 18.516C75.6477 18.663 75.3222 18.873 75.0492 19.146C75.2172 19.335 75.3222 19.545 75.3642 19.776C75.4062 19.986 75.4272 20.175 75.4272 20.343C75.4272 20.763 75.2592 21.204 74.9232 21.666C74.5872 22.107 74.0517 22.317 73.3167 22.296C72.6867 22.275 72.2037 22.0545 71.8677 21.6345C71.5317 21.2145 71.3637 20.721 71.3637 20.154C71.3637 19.314 71.6577 18.5895 72.2457 17.9805C72.8547 17.3505 73.6632 16.8675 74.6712 16.5315C75.6792 16.1745 76.7922 15.996 78.0102 15.996C79.8582 15.996 81.2862 16.479 82.2942 17.445C83.3232 18.39 83.8377 19.9125 83.8377 22.0125C83.8377 22.7265 83.8377 23.3355 83.8377 23.8395C83.8377 24.3435 83.8272 24.8475 83.8062 25.3515C83.8062 25.8555 83.8062 26.4645 83.8062 27.1785C83.8062 27.4725 83.7957 27.8925 83.7747 28.4385C83.7537 28.9635 83.7222 29.4675 83.6802 29.9505C84.0372 29.9085 84.4152 29.8875 84.8142 29.8875C85.2132 29.8665 85.5177 29.856 85.7277 29.856V32.25H79.7742ZM79.4277 25.005C78.8397 25.068 78.2832 25.173 77.7582 25.32C77.2332 25.467 76.7712 25.6665 76.3722 25.9185C75.9942 26.1705 75.6897 26.475 75.4587 26.832C75.2487 27.189 75.1437 27.588 75.1437 28.029C75.1647 28.617 75.3537 29.037 75.7107 29.289C76.0677 29.541 76.4772 29.667 76.9392 29.667C77.4222 29.667 77.8737 29.562 78.2937 29.352C78.7137 29.142 79.0917 28.869 79.4277 28.533C79.4277 28.323 79.4277 28.1235 79.4277 27.9345C79.4277 27.7245 79.4277 27.5145 79.4277 27.3045C79.4277 26.9265 79.4277 26.5485 79.4277 26.1705C79.4277 25.7715 79.4277 25.383 79.4277 25.005Z" fill="#1C252E"/>
<path d="M88.2292 14.4525C88.2292 14.0745 88.2292 13.644 88.2292 13.161C88.2502 12.657 88.2817 12.174 88.3237 11.712C87.9877 11.733 87.5887 11.754 87.1267 11.775C86.6857 11.775 86.3497 11.7855 86.1187 11.8065V9.41251C87.1057 9.41251 87.9247 9.36001 88.5757 9.25501C89.2477 9.15001 89.7727 9.02401 90.1507 8.87701C90.5497 8.73001 90.8227 8.59351 90.9697 8.46751H92.6707V17.697C93.3847 17.067 94.1092 16.626 94.8442 16.374C95.5792 16.122 96.2722 15.996 96.9232 15.996C98.1832 15.996 99.2857 16.3215 100.231 16.9725C101.197 17.6235 101.942 18.5475 102.467 19.7445C103.013 20.9415 103.286 22.3485 103.286 23.9655C103.286 25.6455 102.971 27.1575 102.341 28.5015C101.732 29.8245 100.861 30.864 99.7267 31.62C98.5927 32.376 97.2277 32.754 95.6317 32.754C95.0647 32.754 94.3402 32.628 93.4582 32.376C92.5972 32.145 91.7992 31.641 91.0642 30.864L90.1192 32.25H88.2292V14.4525ZM92.6707 27.525C92.6707 28.239 92.7862 28.806 93.0172 29.226C93.2482 29.646 93.5422 29.9505 93.8992 30.1395C94.2562 30.3285 94.6132 30.4335 94.9702 30.4545C95.9152 30.4755 96.6502 30.2025 97.1752 29.6355C97.7212 29.0685 98.0992 28.323 98.3092 27.399C98.5402 26.454 98.6557 25.467 98.6557 24.438C98.6557 23.472 98.5402 22.5585 98.3092 21.6975C98.0782 20.8365 97.7107 20.1435 97.2067 19.6185C96.7027 19.0725 96.0412 18.81 95.2222 18.831C94.6972 18.852 94.2142 18.9885 93.7732 19.2405C93.3322 19.4715 92.9647 19.7865 92.6707 20.1855V27.525Z" fill="#1C252E"/>
<path d="M108.779 40.7865C107.981 40.7865 107.299 40.545 106.732 40.062C106.186 39.6 105.913 38.9805 105.913 38.2035C105.913 37.6365 106.091 37.1325 106.448 36.6915C106.826 36.2715 107.309 36.051 107.897 36.03C108.359 36.009 108.748 36.156 109.063 36.471C109.399 36.807 109.567 37.2585 109.567 37.8255C109.567 37.8885 109.567 37.9515 109.567 38.0145C109.567 38.0775 109.556 38.151 109.535 38.235C109.577 38.235 109.63 38.2245 109.693 38.2035C109.882 38.1405 110.081 37.962 110.291 37.668C110.522 37.395 110.743 37.0275 110.953 36.5655C111.184 36.0825 111.404 35.5365 111.614 34.9275C111.845 34.3395 112.045 33.72 112.213 33.069L107.236 23.0835C106.648 21.9075 106.259 21.0255 106.07 20.4375C105.902 19.8285 105.787 19.293 105.724 18.831L104.275 18.894V16.5H112.118V18.516C111.341 18.6 110.911 18.894 110.827 19.398C110.764 19.902 110.858 20.427 111.11 20.973L114.197 28.029C114.407 27.483 114.68 26.643 115.016 25.509C115.352 24.354 115.751 23.1045 116.213 21.7605C116.297 21.4875 116.402 21.1725 116.528 20.8155C116.675 20.4375 116.833 20.07 117.001 19.713C117.169 19.335 117.347 19.0305 117.536 18.7995L115.741 18.894V16.5H121.348V18.516C120.697 18.663 120.151 19.062 119.71 19.713C119.29 20.364 118.912 21.162 118.576 22.107L114.638 33.3525C114.05 35.0535 113.494 36.45 112.969 37.542C112.444 38.655 111.856 39.474 111.205 39.999C110.554 40.524 109.745 40.7865 108.779 40.7865Z" fill="#1C252E"/>
<path d="M127.546 32.3445L123.735 21.414C123.546 20.868 123.399 20.4585 123.294 20.1855C123.21 19.9125 123.147 19.6815 123.105 19.4925C123.063 19.3035 123.01 19.083 122.947 18.831L121.719 18.894V16.5H129.279V18.516C128.628 18.537 128.25 18.789 128.145 19.272C128.04 19.755 128.071 20.322 128.239 20.973L129.31 24.816C129.436 25.278 129.552 25.7715 129.657 26.2965C129.783 26.8005 129.888 27.3045 129.972 27.8085C130.077 27.3675 130.182 26.8845 130.287 26.3595C130.413 25.8345 130.591 25.1835 130.822 24.4065L133.122 16.5H136.555L139.075 25.194C139.201 25.635 139.327 26.118 139.453 26.643C139.6 27.147 139.726 27.609 139.831 28.029C139.915 27.609 140.031 27.147 140.178 26.643C140.325 26.139 140.461 25.6875 140.587 25.2885L141.816 21.288C141.984 20.721 142.131 20.259 142.257 19.902C142.383 19.524 142.54 19.146 142.729 18.768L140.934 18.894V16.5H146.919V18.516C146.499 18.516 146.131 18.6525 145.816 18.9255C145.501 19.1985 145.218 19.5345 144.966 19.9335C144.735 20.3115 144.546 20.6895 144.399 21.0675C144.252 21.4245 144.147 21.708 144.084 21.918L140.493 32.3445H137.154L134.98 25.635C134.917 25.404 134.812 25.068 134.665 24.627C134.539 24.186 134.403 23.7135 134.256 23.2095C134.13 22.6845 134.004 22.2015 133.878 21.7605C133.773 22.3485 133.615 23.0205 133.405 23.7765C133.195 24.5325 132.996 25.2255 132.807 25.8555C132.618 26.4855 132.481 26.916 132.397 27.147L130.665 32.3445H127.546Z" fill="#1C252E"/>
<path d="M148.291 30.2025C148.879 30.2025 149.299 30.087 149.551 29.856C149.803 29.625 149.96 29.2995 150.023 28.8795C150.107 28.4385 150.149 27.945 150.149 27.399V22.17C150.149 21.792 150.16 21.3615 150.181 20.8785C150.202 20.3745 150.233 19.8915 150.275 19.4295C149.939 19.4505 149.54 19.4715 149.078 19.4925C148.637 19.4925 148.301 19.503 148.07 19.524V17.13C149.036 17.13 149.855 17.0775 150.527 16.9725C151.199 16.8675 151.724 16.7415 152.102 16.5945C152.501 16.4475 152.774 16.311 152.921 16.185H154.622V27.1785C154.622 27.4725 154.612 27.8925 154.591 28.4385C154.57 28.9635 154.538 29.4675 154.496 29.9505C154.832 29.9085 155.2 29.8875 155.599 29.8875C156.019 29.8665 156.334 29.856 156.544 29.856V32.25H148.291V30.2025ZM152.228 13.6965C151.514 13.6965 150.926 13.4445 150.464 12.9405C150.002 12.4365 149.771 11.8275 149.771 11.1135C149.771 10.3995 150.013 9.79051 150.496 9.28651C150.979 8.78251 151.546 8.53051 152.197 8.53051C152.869 8.53051 153.425 8.78251 153.866 9.28651C154.328 9.79051 154.559 10.3995 154.559 11.1135C154.559 11.8275 154.349 12.4365 153.929 12.9405C153.509 13.4445 152.942 13.6965 152.228 13.6965Z" fill="#1C252E"/>
<path d="M165.841 32.754C164.938 32.754 164.056 32.6385 163.195 32.4075C162.334 32.1765 161.662 31.8825 161.179 31.5255L161.242 32.4705H158.848L158.722 27.0525H160.769C160.832 27.6825 161.084 28.26 161.525 28.785C161.966 29.31 162.544 29.73 163.258 30.045C163.972 30.339 164.77 30.486 165.652 30.486C166.009 30.486 166.345 30.4335 166.66 30.3285C166.996 30.2235 167.269 30.0555 167.479 29.8245C167.71 29.5725 167.825 29.268 167.825 28.911C167.825 28.512 167.678 28.1865 167.384 27.9345C167.111 27.6825 166.702 27.441 166.156 27.21C165.631 26.979 164.969 26.7165 164.171 26.4225C163.52 26.1705 162.859 25.908 162.187 25.635C161.536 25.362 160.927 25.0365 160.36 24.6585C159.814 24.2595 159.373 23.7765 159.037 23.2095C158.701 22.6215 158.533 21.9075 158.533 21.0675C158.533 20.4585 158.648 19.86 158.879 19.272C159.11 18.663 159.467 18.117 159.95 17.634C160.433 17.13 161.042 16.731 161.777 16.437C162.533 16.143 163.426 15.996 164.455 15.996C165.022 15.996 165.662 16.0905 166.376 16.2795C167.111 16.4475 167.731 16.71 168.235 17.067V16.1535H170.629V21.729H168.581C168.455 20.994 168.193 20.364 167.794 19.839C167.416 19.314 166.922 18.915 166.313 18.642C165.704 18.348 165.022 18.201 164.266 18.201C163.741 18.201 163.258 18.327 162.817 18.579C162.397 18.831 162.187 19.2615 162.187 19.8705C162.187 20.3535 162.355 20.742 162.691 21.036C163.027 21.309 163.489 21.54 164.077 21.729C164.665 21.918 165.316 22.1385 166.03 22.3905C167.101 22.7475 168.046 23.1675 168.865 23.6505C169.705 24.1335 170.366 24.7215 170.849 25.4145C171.332 26.0865 171.574 26.916 171.574 27.903C171.574 28.995 171.301 29.898 170.755 30.612C170.209 31.326 169.495 31.8615 168.613 32.2185C167.752 32.5755 166.828 32.754 165.841 32.754Z" fill="#1C252E"/>
<path d="M181.35 32.754C179.817 32.754 178.462 32.418 177.286 31.746C176.11 31.053 175.197 30.087 174.546 28.848C173.895 27.588 173.569 26.1075 173.569 24.4065C173.569 22.9365 173.895 21.561 174.546 20.28C175.197 18.999 176.11 17.97 177.286 17.193C178.483 16.395 179.869 15.996 181.444 15.996C182.326 15.996 183.187 16.122 184.027 16.374C184.867 16.605 185.623 17.0145 186.295 17.6025C186.988 18.1905 187.534 18.9885 187.933 19.9965C188.353 21.0045 188.553 22.2645 188.532 23.7765L178.2 23.9655C178.2 25.0995 178.336 26.118 178.609 27.021C178.903 27.924 179.376 28.638 180.027 29.163C180.678 29.688 181.549 29.9505 182.641 29.9505C183.061 29.9505 183.534 29.877 184.059 29.73C184.605 29.583 185.151 29.3415 185.697 29.0055C186.264 28.6485 186.789 28.176 187.272 27.588L188.689 28.911C187.933 29.982 187.125 30.801 186.264 31.368C185.403 31.914 184.542 32.2815 183.681 32.4705C182.841 32.6595 182.064 32.754 181.35 32.754ZM178.389 21.7605H184.185C184.164 20.8785 184.038 20.1855 183.807 19.6815C183.597 19.1565 183.303 18.7785 182.925 18.5475C182.547 18.3165 182.106 18.201 181.602 18.201C180.678 18.201 179.953 18.537 179.428 19.209C178.903 19.86 178.557 20.7105 178.389 21.7605Z" fill="#1C252E"/>
<path d="M197.1 32.25L206.343 8.47501H212.188L221.432 32.25H215.655L213.922 27.7328H204.61L202.877 32.25H197.1ZM206.377 22.9098H212.12L209.266 15.3018L206.377 22.9098Z" fill="#FF5630"/>
<path d="M224.029 32.25V8.47501H229.5V32.25H224.029Z" fill="#FF5630"/>
<defs>
<linearGradient id="paint0_linear_11_508" x1="3.6375" y1="3.825" x2="41.4" y2="41.4" gradientUnits="userSpaceOnUse">
<stop stop-color="#FF5630"/>
<stop offset="1" stop-color="#E84011"/>
</linearGradient>
</defs>
</svg>
