<svg width="18" height="18" viewBox="0 0 18 18" fill="none" xmlns="http://www.w3.org/2000/svg">
<path d="M1.875 9C1.875 5.64124 1.875 3.96187 2.91843 2.91843C3.96187 1.875 5.64124 1.875 9 1.875C12.3587 1.875 14.0381 1.875 15.0816 2.91843C16.125 3.96187 16.125 5.64124 16.125 9C16.125 12.3587 16.125 14.0381 15.0816 15.0816C14.0381 16.125 12.3587 16.125 9 16.125C5.64124 16.125 3.96187 16.125 2.91843 15.0816C1.875 14.0381 1.875 12.3587 1.875 9Z" stroke="#FF5731" stroke-width="1.5" stroke-linecap="round" stroke-linejoin="round"/>
<path d="M9.375 9H8.625M9.375 9C10.4105 9 11.25 8.16052 11.25 7.125C11.25 6.08947 10.4105 5.25 9.375 5.25H8.625C7.58948 5.25 6.75 6.08947 6.75 7.125M9.375 9C10.4105 9 11.25 9.83948 11.25 10.875C11.25 11.9105 10.4105 12.75 9.375 12.75H8.625C7.58948 12.75 6.75 11.9105 6.75 10.875" stroke="#FF5731" stroke-width="1.5" stroke-linecap="round" stroke-linejoin="round"/>
</svg>
