<svg width="18" height="18" viewBox="0 0 18 18" fill="none" xmlns="http://www.w3.org/2000/svg">
<path d="M8.60573 12.9793C10.8656 10.5614 13.0472 8.92117 15.7876 6.59832C16.6078 5.90304 16.7345 4.68433 16.091 3.8209C15.4072 2.90323 14.1077 2.71981 13.2282 3.44935C10.718 5.53141 8.7651 7.53615 6.91259 9.67882C6.81538 9.79125 6.76678 9.8475 6.71633 9.87915C6.5884 9.9594 6.42853 9.96022 6.29977 9.88132C6.24899 9.8502 6.2003 9.79507 6.10291 9.68482L5.11577 8.56717C4.21507 7.54732 2.59956 7.66027 1.84754 8.79555C1.32128 9.59002 1.39927 10.6429 2.03675 11.35L3.5847 13.0672C4.7425 14.3515 5.32141 14.9937 6.01639 14.9999C6.71137 15.0062 7.34282 14.3306 8.60573 12.9793Z" stroke="white" stroke-width="1.5"/>
</svg>
