<svg width="18" height="18" viewBox="0 0 18 18" fill="none" xmlns="http://www.w3.org/2000/svg">
<path d="M1.875 9C1.875 5.64124 1.875 3.96187 2.91843 2.91843C3.96187 1.875 5.64124 1.875 9 1.875C12.3587 1.875 14.0381 1.875 15.0816 2.91843C16.125 3.96187 16.125 5.64124 16.125 9C16.125 12.3587 16.125 14.0381 15.0816 15.0816C14.0381 16.125 12.3587 16.125 9 16.125C5.64124 16.125 3.96187 16.125 2.91843 15.0816C1.875 14.0381 1.875 12.3587 1.875 9Z" stroke="#FF5731" stroke-width="1.5" stroke-linecap="round" stroke-linejoin="round"/>
<path d="M6.75 7.5C6.75 6.25736 7.75732 5.25 9 5.25C10.2427 5.25 11.25 6.25736 11.25 7.5C11.25 9.05895 9.0897 10.4379 7.76272 11.1379C7.16014 11.4557 6.75 12.0688 6.75 12.75H11.25" stroke="#FF5731" stroke-width="1.5" stroke-linecap="round" stroke-linejoin="round"/>
</svg>
